<?xml version="1.0" standalone="no"?>
<!DOCTYPE svg PUBLIC "-//W3C//DTD SVG 20010904//EN"
 "http://www.w3.org/TR/2001/REC-SVG-20010904/DTD/svg10.dtd">
<svg version="1.0" xmlns="http://www.w3.org/2000/svg"
 width="800.000000pt" height="800.000000pt" viewBox="0 0 800.000000 800.000000"
 preserveAspectRatio="xMidYMid meet">

<g transform="translate(0.000000,800.000000) scale(0.100000,-0.100000)"
fill="#000000" stroke="none">
<path d="M4908 5813 c6 -2 12 -9 12 -14 0 -6 -4 -7 -10 -4 -6 3 -7 -1 -4 -10
5 -11 10 -13 17 -6 12 12 2 41 -15 40 -10 0 -10 -2 0 -6z"/>
<path d="M5277 5378 c5 -186 2 -256 -11 -348 -43 -298 -151 -578 -321 -835
-188 -285 -435 -521 -845 -809 -559 -393 -782 -603 -1017 -959 -79 -118 -156
-266 -198 -380 -21 -56 -26 -49 92 -117 335 -193 795 -293 1201 -262 391 31
723 145 1048 361 294 195 568 506 723 821 29 58 57 113 62 123 20 36 89 245
113 342 46 187 58 295 58 515 -1 360 -61 635 -208 940 -156 322 -346 556 -655
803 l-47 38 5 -233z"/>
<path d="M4726 5205 c-9 -26 -7 -32 5 -12 6 10 9 21 6 23 -2 3 -7 -2 -11 -11z"/>
<path d="M4305 4161 c-3 -5 -2 -12 3 -15 5 -3 9 1 9 9 0 17 -3 19 -12 6z"/>
<path d="M4280 4115 c-7 -9 -8 -15 -2 -15 5 0 12 7 16 15 3 8 4 15 2 15 -2 0
-9 -7 -16 -15z"/>
<path d="M4285 3940 c-3 -6 1 -7 9 -4 18 7 21 14 7 14 -6 0 -13 -4 -16 -10z"/>
<path d="M4150 3883 c0 -5 5 -15 10 -23 8 -12 10 -11 10 8 0 12 -4 22 -10 22
-5 0 -10 -3 -10 -7z"/>
<path d="M3780 3861 c0 -6 4 -13 10 -16 6 -3 7 1 4 9 -7 18 -14 21 -14 7z"/>
</g>
</svg>
