<?xml version="1.0" encoding="UTF-8"?>
<svg version="1.1" xmlns="http://www.w3.org/2000/svg" width="500" height="500">
<path d="M0 0 C165 0 330 0 500 0 C500 165 500 330 500 500 C335 500 170 500 0 500 C0 335 0 170 0 0 Z " fill="#F8F8F8" transform="translate(0,0)"/>
<path d="M0 0 C2.38893998 0.01861318 4.77749794 0.02050651 7.16650391 0.02026367 C8.69124686 0.02516796 10.2159872 0.03099145 11.74072266 0.0378418 C12.80773407 0.03951103 12.80773407 0.03951103 13.89630127 0.04121399 C18.86769228 0.08960786 18.86769228 0.08960786 21.10009766 1.20581055 C23.20286889 1.4277864 25.30742067 1.63294692 27.41259766 1.83081055 C60.35263725 5.78426341 94.52947734 27.49125256 115.31103516 53.0456543 C122.54669664 62.29222202 128.85545193 71.69559283 134.10009766 82.20581055 C134.41672363 82.83777344 134.73334961 83.46973633 135.05957031 84.12084961 C143.38573552 101.08622645 149.10009766 120.19289683 149.10009766 139.20581055 C149.76912109 139.24319336 150.43814453 139.28057617 151.12744141 139.3190918 C191.66589827 142.09420764 227.33178314 161.0391365 253.98681641 191.5925293 C269.23801119 210.45213986 280.2789677 232.41344718 285.10009766 256.20581055 C285.24817871 256.87306152 285.39625977 257.5403125 285.54882812 258.2277832 C289.51846359 276.25565405 289.96150496 296.1193338 286.10009766 314.20581055 C285.85517578 315.41108398 285.61025391 316.61635742 285.35791016 317.8581543 C276.48380262 358.5165798 252.22566979 391.32671029 217.61181641 413.82299805 C215.14327072 415.35806007 212.64213889 416.7955743 210.10009766 418.20581055 C208.97732422 418.83229492 207.85455078 419.4587793 206.69775391 420.10424805 C199.06321385 424.2143144 191.28151766 427.39533436 183.03759766 430.08081055 C182.17682617 430.36690186 181.31605469 430.65299316 180.42919922 430.94775391 C166.7863308 435.18917237 152.76577538 435.64720679 138.60009766 435.64331055 C137.35434967 435.6449118 137.35434967 435.6449118 136.08343506 435.64654541 C122.25455066 435.62098247 109.35591446 434.40982195 96.10009766 430.20581055 C95.36259277 429.97587402 94.62508789 429.7459375 93.86523438 429.5090332 C89.15879787 427.99452745 84.61666557 426.21343375 80.10009766 424.20581055 C79.45024902 423.91867187 78.80040039 423.6315332 78.13085938 423.33569336 C62.39558148 416.24082031 48.78951127 406.63456776 36.49169922 394.56225586 C35.25457998 393.35639015 33.98784353 392.18107805 32.71728516 391.01049805 C9.10262233 368.75008112 -5.71644382 335.27252294 -8.89990234 303.20581055 C-8.93639185 300.87276255 -8.94843974 298.53863899 -8.89990234 296.20581055 C-9.66689453 296.26381836 -10.43388672 296.32182617 -11.22412109 296.3815918 C-42.85860216 297.66754631 -75.30848958 280.5213345 -98.08740234 259.70581055 C-100.03665469 257.88442416 -101.96824418 256.04599743 -103.89990234 254.20581055 C-104.68107422 253.4890918 -105.46224609 252.77237305 -106.26708984 252.03393555 C-132.24557258 227.44220455 -146.95200855 189.79751615 -148.06396484 154.51049805 C-148.96621159 112.44823378 -134.44862003 75.10010209 -105.89990234 44.20581055 C-99.24445633 37.26422623 -91.94099617 31.26678322 -84.14990234 25.64331055 C-83.46524902 25.1424292 -82.7805957 24.64154785 -82.07519531 24.12548828 C-77.26608739 20.76072847 -72.54912632 18.7709315 -66.89990234 17.20581055 C-66.89990234 16.54581055 -66.89990234 15.88581055 -66.89990234 15.20581055 C-44.49363771 6.159911 -24.32710031 -0.19663938 0 0 Z " fill="#F7F8F7" transform="translate(179.89990234375,33.794189453125)"/>
<path d="M0 0 C2.38893998 0.01861318 4.77749794 0.02050651 7.16650391 0.02026367 C8.69124686 0.02516796 10.2159872 0.03099145 11.74072266 0.0378418 C12.80773407 0.03951103 12.80773407 0.03951103 13.89630127 0.04121399 C18.86769228 0.08960786 18.86769228 0.08960786 21.10009766 1.20581055 C23.20286889 1.4277864 25.30742067 1.63294692 27.41259766 1.83081055 C60.35263725 5.78426341 94.52947734 27.49125256 115.31103516 53.0456543 C122.54669664 62.29222202 128.85545193 71.69559283 134.10009766 82.20581055 C134.41672363 82.83777344 134.73334961 83.46973633 135.05957031 84.12084961 C143.38573552 101.08622645 149.10009766 120.19289683 149.10009766 139.20581055 C149.76912109 139.24319336 150.43814453 139.28057617 151.12744141 139.3190918 C191.66589827 142.09420764 227.33178314 161.0391365 253.98681641 191.5925293 C269.23801119 210.45213986 280.2789677 232.41344718 285.10009766 256.20581055 C285.24817871 256.87306152 285.39625977 257.5403125 285.54882812 258.2277832 C289.51846359 276.25565405 289.96150496 296.1193338 286.10009766 314.20581055 C285.85517578 315.41108398 285.61025391 316.61635742 285.35791016 317.8581543 C276.48380262 358.5165798 252.22566979 391.32671029 217.61181641 413.82299805 C215.14327072 415.35806007 212.64213889 416.7955743 210.10009766 418.20581055 C208.97732422 418.83229492 207.85455078 419.4587793 206.69775391 420.10424805 C199.06321385 424.2143144 191.28151766 427.39533436 183.03759766 430.08081055 C182.17682617 430.36690186 181.31605469 430.65299316 180.42919922 430.94775391 C166.7863308 435.18917237 152.76577538 435.64720679 138.60009766 435.64331055 C137.35434967 435.6449118 137.35434967 435.6449118 136.08343506 435.64654541 C122.25455066 435.62098247 109.35591446 434.40982195 96.10009766 430.20581055 C95.36259277 429.97587402 94.62508789 429.7459375 93.86523438 429.5090332 C89.15879787 427.99452745 84.61666557 426.21343375 80.10009766 424.20581055 C79.45024902 423.91867187 78.80040039 423.6315332 78.13085938 423.33569336 C62.39558148 416.24082031 48.78951127 406.63456776 36.49169922 394.56225586 C35.25457998 393.35639015 33.98784353 392.18107805 32.71728516 391.01049805 C9.10262233 368.75008112 -5.71644382 335.27252294 -8.89990234 303.20581055 C-8.93639185 300.87276255 -8.94843974 298.53863899 -8.89990234 296.20581055 C-9.66689453 296.26381836 -10.43388672 296.32182617 -11.22412109 296.3815918 C-42.85860216 297.66754631 -75.30848958 280.5213345 -98.08740234 259.70581055 C-100.03665469 257.88442416 -101.96824418 256.04599743 -103.89990234 254.20581055 C-104.68107422 253.4890918 -105.46224609 252.77237305 -106.26708984 252.03393555 C-132.24557258 227.44220455 -146.95200855 189.79751615 -148.06396484 154.51049805 C-148.96621159 112.44823378 -134.44862003 75.10010209 -105.89990234 44.20581055 C-99.24445633 37.26422623 -91.94099617 31.26678322 -84.14990234 25.64331055 C-83.46524902 25.1424292 -82.7805957 24.64154785 -82.07519531 24.12548828 C-77.26608739 20.76072847 -72.54912632 18.7709315 -66.89990234 17.20581055 C-66.89990234 16.54581055 -66.89990234 15.88581055 -66.89990234 15.20581055 C-44.49363771 6.159911 -24.32710031 -0.19663938 0 0 Z M-27.46240234 15.64331055 C-30.54566514 16.53966244 -33.61534825 17.38066494 -36.73583984 18.14331055 C-49.98415592 21.43628067 -61.58730343 26.59977933 -72.89990234 34.20581055 C-73.563125 34.65102051 -74.22634766 35.09623047 -74.90966797 35.55493164 C-76.89677605 36.90237382 -78.87048167 38.26659159 -80.83740234 39.64331055 C-81.44737061 40.06837891 -82.05733887 40.49344727 -82.68579102 40.93139648 C-84.12977581 41.97034323 -85.52102577 43.08188804 -86.89990234 44.20581055 C-86.89990234 44.86581055 -86.89990234 45.52581055 -86.89990234 46.20581055 C-87.44517578 46.42881836 -87.99044922 46.65182617 -88.55224609 46.8815918 C-110.86425724 59.46690258 -123.89194511 90.74943658 -130.99755859 113.76049805 C-131.73790598 116.56563335 -132.35319137 119.35715865 -132.89990234 122.20581055 C-133.10228516 123.13006836 -133.30466797 124.05432617 -133.51318359 125.0065918 C-139.72676077 157.59617006 -132.07143165 194.67578684 -113.57177734 222.18041992 C-91.42025418 253.97759259 -60.92272289 275.03814997 -22.71240234 282.8581543 C-19.48218536 283.25744501 -16.34177007 283.3382491 -13.08740234 283.33081055 C-11.37617188 283.33467773 -11.37617188 283.33467773 -9.63037109 283.33862305 C-6.98664769 283.51652858 -6.98664769 283.51652858 -5.89990234 282.20581055 C-1.86830044 281.94287999 -0.340975 281.91176211 3.10009766 284.20581055 C3.36580508 286.63425285 3.46224455 288.89822081 3.47509766 291.33081055 C4.75981478 328.50680724 21.42767974 362.74217769 48.10009766 388.20581055 C61.53597243 400.35315984 77.59265338 409.7918155 94.66259766 415.76831055 C95.45472656 416.05899414 96.24685547 416.34967773 97.06298828 416.64916992 C109.68091941 421.09378396 121.97669864 422.71070754 135.25146484 422.59692383 C137.46726467 422.58086731 139.68122804 422.59686555 141.89697266 422.6159668 C158.01412261 422.64034068 172.89671024 419.47365093 188.10009766 414.20581055 C188.96634766 413.9222168 189.83259766 413.63862305 190.72509766 413.34643555 C204.49197507 408.41640512 216.90559631 399.43307734 228.10009766 390.20581055 C228.86966797 389.57803711 229.63923828 388.95026367 230.43212891 388.3034668 C255.81845675 366.89740451 271.61530154 332.570574 274.88916016 299.8815918 C276.00898838 285.67636346 275.50624945 272.05064305 272.10009766 258.20581055 C271.68244141 256.36696289 271.68244141 256.36696289 271.25634766 254.4909668 C262.90664841 220.19241773 241.4592943 191.58440754 211.98974609 172.43823242 C210.37434464 171.38467344 208.7850341 170.29129196 207.20166016 169.19018555 C197.92049813 163.14790411 187.17703527 160.31275371 176.68041992 157.05615234 C174.10009766 156.20581055 174.10009766 156.20581055 171.68823242 155.14624023 C168.54875324 154.00547297 165.70162283 153.73319858 162.37353516 153.4597168 C161.09478516 153.3443457 159.81603516 153.22897461 158.49853516 153.11010742 C156.48001518 152.93647924 154.46128596 152.7671944 152.44189453 152.60400391 C150.48061528 152.44254554 148.52077775 152.26386498 146.56103516 152.0847168 C145.39362793 151.98747314 144.2262207 151.89022949 143.0234375 151.79003906 C140.10009766 151.20581055 140.10009766 151.20581055 138.24462891 149.9987793 C136.67039433 147.53265756 136.5540249 145.55131375 136.32666016 142.6394043 C136.17741089 140.96479126 136.17741089 140.96479126 136.02514648 139.25634766 C135.92613037 138.06404541 135.82711426 136.87174316 135.72509766 135.64331055 C132.13862986 99.22853133 115.12788913 67.10402471 86.93603516 43.5065918 C79.47948044 37.48398991 71.5175521 32.76369227 63.10009766 28.20581055 C62.43437744 27.80523437 61.76865723 27.4046582 61.08276367 26.99194336 C55.13926034 23.47784785 49.17383297 21.42359021 42.53759766 19.58081055 C40.94008667 19.13306274 40.94008667 19.13306274 39.31030273 18.67626953 C36.24531831 17.83214039 33.17486182 17.01348934 30.10009766 16.20581055 C29.36339844 16.00648926 28.62669922 15.80716797 27.86767578 15.60180664 C11.06811885 11.19044262 -10.68600661 10.70003669 -27.46240234 15.64331055 Z " fill="#105D1C" transform="translate(179.89990234375,33.794189453125)"/>
<path d="M0 0 C8.19149055 3.76707436 14.0646278 10.32013537 17.3671875 18.69140625 C19.9317195 28.24051656 17.7451075 36.67911901 13.03125 45.1640625 C10.53125 48.1640625 10.53125 48.1640625 8.03125 50.1640625 C7.2475 50.8653125 6.46375 51.5665625 5.65625 52.2890625 C-1.32847072 57.27814873 -7.48281064 58.13894848 -15.96875 57.1640625 C-24.47528807 54.92409636 -31.48081934 49.22745785 -35.96875 41.7265625 C-39.35660487 34.17879059 -39.45737622 24.94589448 -37.01171875 17.08984375 C-30.11544689 2.4434759 -15.60059552 -4.39279927 0 0 Z " fill="#0E5C1B" transform="translate(259.96875,220.8359375)"/>
<path d="M0 0 C1.20720703 -0.03287109 2.41441406 -0.06574219 3.65820312 -0.09960938 C11.02025422 -0.14388634 16.19469849 0.44684013 21.8125 5.4375 C26.27523611 10.24352351 27.01270222 13.88751524 26.9921875 20.2265625 C26.8125 22.4375 26.8125 22.4375 25.625 25.1875 C25.356875 25.93 25.08875 26.6725 24.8125 27.4375 C25.28300781 28.18644531 25.75351563 28.93539062 26.23828125 29.70703125 C28.92191931 34.36177816 28.31720302 39.21275748 27.8125 44.4375 C26.09597789 49.88998198 22.41630327 53.2253009 17.8125 56.4375 C12.7981629 58.1089457 7.55634925 57.62343357 2.3059082 57.62280273 C0.25386011 57.62499587 -1.79765588 57.6431849 -3.84960938 57.66210938 C-5.78223633 57.66500977 -5.78223633 57.66500977 -7.75390625 57.66796875 C-8.93927979 57.67207764 -10.12465332 57.67618652 -11.34594727 57.68041992 C-14.1875 57.4375 -14.1875 57.4375 -16.1875 55.4375 C-16.44819641 53.19836426 -16.44819641 53.19836426 -16.4621582 50.37695312 C-16.47169022 49.32245972 -16.48122223 48.26796631 -16.49104309 47.18151855 C-16.49013168 46.03880493 -16.48922028 44.89609131 -16.48828125 43.71875 C-16.49256638 42.54993286 -16.4968515 41.38111572 -16.50126648 40.17687988 C-16.50701757 37.70207366 -16.50750434 35.22725052 -16.50317383 32.75244141 C-16.50001303 28.95315923 -16.52346739 25.15465459 -16.54882812 21.35546875 C-16.55110083 18.95573015 -16.55180475 16.55598945 -16.55078125 14.15625 C-16.559991 13.01353638 -16.56920074 11.87082275 -16.57868958 10.69348145 C-16.57246078 9.63898804 -16.56623199 8.58449463 -16.55981445 7.49804688 C-16.56044388 6.5669812 -16.5610733 5.63591553 -16.5617218 4.67663574 C-16.43822861 3.93772095 -16.31473541 3.19880615 -16.1875 2.4375 C-11.27338279 -0.83857814 -5.77623732 0.02731799 0 0 Z " fill="#0D5B1A" transform="translate(145.1875,128.5625)"/>
<path d="M0 0 C1.4616156 -0.00956978 1.4616156 -0.00956978 2.95275879 -0.01933289 C4.00797729 -0.02044571 5.0631958 -0.02155853 6.15039062 -0.02270508 C7.23042358 -0.02603348 8.31045654 -0.02936188 9.42321777 -0.03279114 C11.70971245 -0.03786008 13.99621455 -0.04019947 16.28271484 -0.04003906 C19.79211517 -0.04222727 23.30120215 -0.06038825 26.81054688 -0.0793457 C29.02799371 -0.0822792 31.24544205 -0.08426429 33.46289062 -0.08520508 C34.51810913 -0.09239059 35.57332764 -0.09957611 36.66052246 -0.10697937 C38.12213806 -0.10236443 38.12213806 -0.10236443 39.61328125 -0.09765625 C40.47328735 -0.09908127 41.33329346 -0.10050629 42.21936035 -0.10197449 C44.30664062 0.14526367 44.30664062 0.14526367 46.30664062 2.14526367 C46.63416296 4.85981323 46.43748312 7.39757126 46.30664062 10.14526367 C45.30664062 11.14526367 45.30664062 11.14526367 43.44897461 11.25878906 C42.26283569 11.25093384 42.26283569 11.25093384 41.05273438 11.24291992 C40.19873047 11.23969727 39.34472656 11.23647461 38.46484375 11.2331543 C37.56701172 11.22477539 36.66917969 11.21639648 35.74414062 11.20776367 C34.84244141 11.20325195 33.94074219 11.19874023 33.01171875 11.1940918 C30.77662749 11.18226592 28.54166626 11.16578587 26.30664062 11.14526367 C26.31108185 11.6920578 26.31552307 12.23885193 26.32009888 12.80221558 C26.36425419 18.47952671 26.39447442 24.15678928 26.41650391 29.83422852 C26.42657814 31.95469137 26.44023796 34.07514028 26.45751953 36.19555664 C26.48170552 39.2387231 26.49310932 42.28170634 26.50195312 45.32495117 C26.5122757 46.27707489 26.52259827 47.22919861 26.53323364 48.21017456 C26.53346024 49.5313176 26.53346024 49.5313176 26.53369141 50.87915039 C26.53813263 51.65636444 26.54257385 52.43357849 26.54714966 53.23434448 C26.30664062 55.14526367 26.30664062 55.14526367 24.30664062 57.14526367 C22.21289062 57.41088867 22.21289062 57.41088867 19.80664062 57.39526367 C19.01257813 57.40041992 18.21851563 57.40557617 17.40039062 57.41088867 C15.30664062 57.14526367 15.30664062 57.14526367 13.30664062 55.14526367 C13.06613159 53.23434448 13.06613159 53.23434448 13.07958984 50.87915039 C13.07974091 49.99838837 13.07989197 49.11762634 13.08004761 48.21017456 C13.09037018 47.25805084 13.10069275 46.30592712 13.11132812 45.32495117 C13.11415802 44.35115509 13.11698792 43.37735901 13.11990356 42.37405396 C13.1311215 39.25600019 13.15622893 36.138231 13.18164062 33.02026367 C13.19166834 30.90959073 13.20079455 28.7989133 13.20898438 26.68823242 C13.23106604 21.50714532 13.26455933 16.32622482 13.30664062 11.14526367 C12.45114624 11.1531189 12.45114624 11.1531189 11.57836914 11.16113281 C9.00863739 11.18184588 6.43892316 11.19490557 3.86914062 11.20776367 C2.52239258 11.22033203 2.52239258 11.22033203 1.1484375 11.2331543 C-0.13256836 11.23798828 -0.13256836 11.23798828 -1.43945312 11.24291992 C-2.2302124 11.24815674 -3.02097168 11.25339355 -3.83569336 11.25878906 C-5.69335938 11.14526367 -5.69335938 11.14526367 -6.69335938 10.14526367 C-6.76515901 8.62598329 -6.77727945 7.10358885 -6.75585938 5.58276367 C-6.74683594 4.75647461 -6.7378125 3.93018555 -6.72851562 3.07885742 C-6.71691406 2.44077148 -6.7053125 1.80268555 -6.69335938 1.14526367 C-4.26830997 -0.06726103 -2.70953143 0.01200943 0 0 Z " fill="#0D5B1A" transform="translate(312.693359375,312.854736328125)"/>
<path d="M0 0 C0.99 0.66 1.98 1.32 3 2 C3.3742218 4.23913574 3.3742218 4.23913574 3.37231445 7.06054688 C3.37854324 8.11504028 3.38477203 9.16953369 3.39118958 10.25598145 C3.38197983 11.39869507 3.37277008 12.54140869 3.36328125 13.71875 C3.36377975 14.88756714 3.36427826 16.05638428 3.36479187 17.26062012 C3.36244805 19.73545021 3.35270153 22.21028253 3.33618164 24.68505859 C3.31259768 28.48426514 3.31561753 32.28277018 3.32226562 36.08203125 C3.31668897 38.48177504 3.30957917 40.88151586 3.30078125 43.28125 C3.30214836 44.99532043 3.30214836 44.99532043 3.30354309 46.74401855 C3.29401108 47.79851196 3.28447906 48.85300537 3.2746582 49.93945312 C3.27005081 50.8705188 3.26544342 51.80158447 3.26069641 52.76086426 C3 55 3 55 1 57 C-1.09375 57.265625 -1.09375 57.265625 -3.5 57.25 C-4.2940625 57.25515625 -5.088125 57.2603125 -5.90625 57.265625 C-8 57 -8 57 -10 55 C-10.26069641 52.76086426 -10.26069641 52.76086426 -10.2746582 49.93945312 C-10.28419022 48.88495972 -10.29372223 47.83046631 -10.30354309 46.74401855 C-10.30263168 45.60130493 -10.30172028 44.45859131 -10.30078125 43.28125 C-10.30506638 42.11243286 -10.3093515 40.94361572 -10.31376648 39.73937988 C-10.31951757 37.26457366 -10.32000434 34.78975052 -10.31567383 32.31494141 C-10.31251303 28.51565923 -10.33596739 24.71715459 -10.36132812 20.91796875 C-10.36360083 18.51823015 -10.36430475 16.11848945 -10.36328125 13.71875 C-10.372491 12.57603638 -10.38170074 11.43332275 -10.39118958 10.25598145 C-10.38496078 9.20148804 -10.37873199 8.14699463 -10.37231445 7.06054688 C-10.37294388 6.1294812 -10.3735733 5.19841553 -10.3742218 4.23913574 C-10.25072861 3.50022095 -10.12723541 2.76130615 -10 2 C-6.31282562 -0.45811625 -4.35654296 -0.31118164 0 0 Z " fill="#0C5A19" transform="translate(190,129)"/>
<path d="M0 0 C4.23312962 1.67074441 7.73605332 3.97520591 10 8 C11.67836373 13.64215892 11.99219469 18.97744929 9.375 24.3125 C6.26023336 27.83710435 3.61173611 30.54048449 -1.17578125 31.3828125 C-5.13581064 31.58247785 -7.66567838 31.15139092 -11.3125 29.5 C-15.71245315 25.40702032 -17.71825347 21.33447124 -18.4375 15.375 C-17.7478555 10.05488529 -15.99066694 6.64607032 -11.9375 3.1875 C-7.61491619 -0.03144539 -5.43113276 -0.44517482 0 0 Z " fill="#F3F5F3" transform="translate(253,233)"/>
<path d="M0 0 C14 0 14 0 16 1 C16.04254356 2.99954746 16.04080783 5.00041636 16 7 C14.06729418 8.93270582 10.61358612 8.62663055 8 9 C6.66351983 10.11101184 6.66351983 10.11101184 6.875 12.9375 C6.78674336 15.91545728 6.78674336 15.91545728 8 18 C10.02543556 18.25719817 12.05350224 18.50842122 14.08984375 18.65625 C16 19 16 19 18 21 C18.25 24 18.25 24 18 27 C16 29 16 29 12.3046875 29.1953125 C10.82798332 29.1838709 9.35138199 29.15789907 7.875 29.125 C5.27625 29.08375 2.6775 29.0425 0 29 C0 19.43 0 9.86 0 0 Z " fill="#EFF2F0" transform="translate(142,143)"/>
<path d="M0 0 C2.375 1.625 2.375 1.625 4 4 C4 7.55053329 3.64301849 9.28808667 1.25 11.9375 C-1 13 -1 13 -3.5625 12.875 C-7.52941176 11.45098039 -7.52941176 11.45098039 -9 9 C-8.875 5.4375 -8.875 5.4375 -8 2 C-4.75173326 -0.16551116 -3.76905843 -0.55156953 0 0 Z " fill="#1D6629" transform="translate(237,201)"/>
<path d="M0 0 C1.8125 1.0625 1.8125 1.0625 3 3 C3.4375 6.5 3.4375 6.5 3 10 C1.3125 12 1.3125 12 -1 13 C-3.81900839 12.8624874 -5.45769347 12.35530428 -7.8125 10.8125 C-9.60140853 8.08206067 -9.46413104 6.18261281 -9 3 C-6.30254095 0.00282328 -3.95012118 -0.60771095 0 0 Z " fill="#1B6527" transform="translate(324,196)"/>
<path d="M0 0 C1.8125 1.0625 1.8125 1.0625 3 3 C3.4375 6.5 3.4375 6.5 3 10 C1.3125 12 1.3125 12 -1 13 C-3.8001969 12.86340503 -5.48077872 12.31153277 -7.875 10.875 C-9 9 -9 9 -8.875 5.4375 C-7.56722443 0.29981025 -4.99011177 -0.62376397 0 0 Z " fill="#1B6527" transform="translate(227,311)"/>
<path d="M0 0 C1.8125 1.0625 1.8125 1.0625 3 3 C3.4375 6.5 3.4375 6.5 3 10 C1.3125 12 1.3125 12 -1 13 C-3.8001969 12.86340503 -5.48077872 12.31153277 -7.875 10.875 C-9 9 -9 9 -8.875 5.4375 C-7.56722443 0.29981025 -4.99011177 -0.62376397 0 0 Z " fill="#1B6527" transform="translate(273,286)"/>
<path d="M0 0 C2.5216604 2.26079898 2.95780733 3.70465133 3.4375 7.0625 C3 10 3 10 1.3125 11.875 C-1.44547336 13.21671677 -2.9749427 13.542959 -6 13 C-8.5216604 10.73920102 -8.95780733 9.29534867 -9.4375 5.9375 C-9 3 -9 3 -7.3125 1.125 C-4.55452664 -0.21671677 -3.0250573 -0.542959 0 0 Z " fill="#196426" transform="translate(190,263)"/>
<path d="M0 0 C1.875 1.5625 1.875 1.5625 3 4 C2.875 7.625 2.875 7.625 2 11 C-1.22143276 13.14762184 -2.2595467 13.561068 -6 13 C-8.5216604 10.73920102 -8.95780733 9.29534867 -9.4375 5.9375 C-9 3 -9 3 -7.3125 1.125 C-4.55452664 -0.21671677 -3.0250573 -0.542959 0 0 Z " fill="#186325" transform="translate(260,187)"/>
<path d="M0 0 C1.875 1.125 1.875 1.125 3 3 C2.9375 6.5625 2.9375 6.5625 2 10 C0.25 11.5 0.25 11.5 -2 12 C-5.34977063 11.68097423 -6.59179639 11.40820361 -9 9 C-9.375 5.5625 -9.375 5.5625 -9 2 C-6.18112246 -1.3408919 -4.01115641 -1.4399023 0 0 Z " fill="#186224" transform="translate(183,289)"/>
<path d="M0 0 C2.33007341 1.08736759 3.48155493 1.67482358 4.875 3.875 C4.8125 7.4375 4.8125 7.4375 3.875 10.875 C2.125 12.375 2.125 12.375 -0.125 12.875 C-3.47477063 12.55597423 -4.71679639 12.28320361 -7.125 9.875 C-7.5625 6.4375 -7.5625 6.4375 -7.125 2.875 C-4.69390699 0.71402843 -3.2812132 -0.19301254 0 0 Z " fill="#176224" transform="translate(200.125,239.125)"/>
<path d="M0 0 C1.875 1.125 1.875 1.125 3 3 C3.4375 6 3.4375 6 3 9 C0.88310295 11.35210784 -0.44041515 11.91810953 -3.5625 12.375 C-6 12 -6 12 -7.8125 10.9375 C-9.66501934 7.91496844 -9.37643703 5.45067281 -9 2 C-5.53076119 -0.31282587 -4.07794425 -0.42478586 0 0 Z " fill="#176224" transform="translate(218,219)"/>
<path d="M0 0 C1.75 1.5625 1.75 1.5625 3 4 C3.1875 7.75 3.1875 7.75 3 11 C-0.10391762 12.83935859 -2.39429145 13.55472439 -6 13 C-7.875 11.4375 -7.875 11.4375 -9 9 C-8.9375 5.375 -8.9375 5.375 -8 2 C-5.17700309 -0.23892859 -3.7208921 0 0 0 Z " fill="#186324" transform="translate(292,267)"/>
<path d="M0 0 C1.875 1.125 1.875 1.125 3 3 C2.9375 6.5625 2.9375 6.5625 2 10 C0.25 11.5 0.25 11.5 -2 12 C-5.34977063 11.68097423 -6.59179639 11.40820361 -9 9 C-9.375 5.5625 -9.375 5.5625 -9 2 C-6.18112246 -1.3408919 -4.01115641 -1.4399023 0 0 Z " fill="#176223" transform="translate(311,174)"/>
<path d="M0 0 C1.8125 1.125 1.8125 1.125 3 3 C3.5 5.9375 3.5 5.9375 3 9 C0.75 11.4375 0.75 11.4375 -2 13 C-4.52556482 12.92571868 -5.68719371 12.19415563 -7.8125 10.875 C-9 9 -9 9 -8.875 5.4375 C-7.56722443 0.29981025 -4.99011177 -0.62376397 0 0 Z " fill="#166123" transform="translate(307,246)"/>
<path d="M0 0 C1.875 1.125 1.875 1.125 3 3 C3.4375 6 3.4375 6 3 9 C0.88310295 11.35210784 -0.44041515 11.91810953 -3.5625 12.375 C-6 12 -6 12 -7.875 11 C-9.78933863 7.59673133 -8.78577737 4.7475536 -8 1 C-5.20129973 -0.39935013 -3.09501208 -0.25265405 0 0 Z " fill="#156122" transform="translate(318,222)"/>
<path d="M0 0 C1.875 1.6875 1.875 1.6875 3 4 C2.375 7.125 2.375 7.125 1 10 C-2 12 -2 12 -4.5625 11.8125 C-7 11 -7 11 -9 8 C-9.07905064 5.66800612 -9.08798769 3.33167378 -9 1 C-3.46153846 -1.61538462 -3.46153846 -1.61538462 0 0 Z " fill="#156021" transform="translate(202,318)"/>
<path d="M0 0 C2.375 1.625 2.375 1.625 4 4 C3.9375 7.125 3.9375 7.125 3 10 C-0.23253796 12.15502531 -1.25150923 12.46856135 -5 12 C-6.8125 10.9375 -6.8125 10.9375 -8 9 C-8.375 5.4375 -8.375 5.4375 -8 2 C-4.75173326 -0.16551116 -3.76905843 -0.55156953 0 0 Z " fill="#125F1F" transform="translate(284,178)"/>
<path d="M0 0 C2.375 1.625 2.375 1.625 4 4 C4 7.125 4 7.125 3 10 C0.62326472 11.95231826 -0.56996525 12.04095569 -3.625 11.75 C-6 11 -6 11 -8 9 C-8.3125 5.5 -8.3125 5.5 -8 2 C-4.75173326 -0.16551116 -3.76905843 -0.55156953 0 0 Z " fill="#115E1D" transform="translate(251,301)"/>
</svg>
