<?xml version="1.0" encoding="UTF-8"?>
<svg version="1.1" xmlns="http://www.w3.org/2000/svg" width="500" height="500">
<path d="M0 0 C165 0 330 0 500 0 C500 165 500 330 500 500 C335 500 170 500 0 500 C0 335 0 170 0 0 Z " fill="#F3F7F4" transform="translate(0,0)"/>
<path d="M0 0 C2.38893998 0.01861318 4.77749794 0.02050651 7.16650391 0.02026367 C8.69124686 0.02516796 10.2159872 0.03099145 11.74072266 0.0378418 C12.80773407 0.03951103 12.80773407 0.03951103 13.89630127 0.04121399 C18.86769228 0.08960786 18.86769228 0.08960786 21.10009766 1.20581055 C23.20286889 1.4277864 25.30742067 1.63294692 27.41259766 1.83081055 C56.86255365 5.3653847 83.62271842 22.61529591 105.10009766 42.20581055 C105.85935547 42.89288086 106.61861328 43.57995117 107.40087891 44.2878418 C128.09777227 63.9892934 142.04680194 92.37965993 147.47509766 120.20581055 C147.72694824 121.49588013 147.72694824 121.49588013 147.98388672 122.81201172 C148.97877056 128.35424529 149.24763916 133.5765347 149.10009766 139.20581055 C150.39753906 139.19227539 150.39753906 139.19227539 151.72119141 139.1784668 C187.98922742 140.03226908 223.07961902 159.78804728 248.10009766 185.20581055 C276.3950364 215.11456581 289.35201808 253.55126925 288.35791016 294.39331055 C288.10174353 301.12683329 287.51022019 307.60092627 286.10009766 314.20581055 C285.85517578 315.41108398 285.61025391 316.61635742 285.35791016 317.8581543 C276.48380262 358.5165798 252.22566979 391.32671029 217.61181641 413.82299805 C215.14327072 415.35806007 212.64213889 416.7955743 210.10009766 418.20581055 C208.97732422 418.83229492 207.85455078 419.4587793 206.69775391 420.10424805 C199.06321385 424.2143144 191.28151766 427.39533436 183.03759766 430.08081055 C182.17682617 430.36690186 181.31605469 430.65299316 180.42919922 430.94775391 C167.70666341 434.90305104 154.73883756 435.55947336 141.52148438 435.52148438 C139.23340181 435.51832202 136.94661602 435.54191321 134.65869141 435.56713867 C121.2311502 435.624942 108.16246547 433.83091603 95.28759766 429.89331055 C94.24369873 429.58127686 94.24369873 429.58127686 93.17871094 429.26293945 C87.77521413 427.57535714 82.79227907 425.33793243 77.81103516 422.63549805 C75.02124059 421.11387556 75.02124059 421.11387556 71.66259766 419.76049805 C58.13705536 413.85790393 46.78798274 404.18337251 36.10009766 394.20581055 C35.29701172 393.4684668 34.49392578 392.73112305 33.66650391 391.97143555 C8.86191165 368.31777637 -6.37410066 334.25428193 -8.89990234 300.20581055 C-8.89990234 298.88581055 -8.89990234 297.56581055 -8.89990234 296.20581055 C-9.53412109 296.2522168 -10.16833984 296.29862305 -10.82177734 296.34643555 C-43.46647619 297.60893771 -76.45690069 279.71704659 -99.89990234 258.20581055 C-100.44533691 257.7056543 -100.99077148 257.20549805 -101.55273438 256.69018555 C-128.11170016 231.99432302 -146.38423898 195.6926334 -147.89990234 159.20581055 C-149.08733199 114.9597251 -136.20753369 76.99621456 -105.89990234 44.20581055 C-97.20900692 35.14526989 -87.43931407 27.96783481 -76.89990234 21.20581055 C-75.89314453 20.54709961 -74.88638672 19.88838867 -73.84912109 19.2097168 C-51.82935124 5.53492196 -25.62234543 -0.20710903 0 0 Z " fill="#D6EEDE" transform="translate(179.89990234375,33.794189453125)"/>
<path d="M0 0 C2.38893998 0.01861318 4.77749794 0.02050651 7.16650391 0.02026367 C8.69124686 0.02516796 10.2159872 0.03099145 11.74072266 0.0378418 C12.80773407 0.03951103 12.80773407 0.03951103 13.89630127 0.04121399 C18.86769228 0.08960786 18.86769228 0.08960786 21.10009766 1.20581055 C23.20286889 1.4277864 25.30742067 1.63294692 27.41259766 1.83081055 C56.86255365 5.3653847 83.62271842 22.61529591 105.10009766 42.20581055 C105.85935547 42.89288086 106.61861328 43.57995117 107.40087891 44.2878418 C128.09777227 63.9892934 142.04680194 92.37965993 147.47509766 120.20581055 C147.72694824 121.49588013 147.72694824 121.49588013 147.98388672 122.81201172 C148.97877056 128.35424529 149.24763916 133.5765347 149.10009766 139.20581055 C150.39753906 139.19227539 150.39753906 139.19227539 151.72119141 139.1784668 C187.98922742 140.03226908 223.07961902 159.78804728 248.10009766 185.20581055 C276.3950364 215.11456581 289.35201808 253.55126925 288.35791016 294.39331055 C288.10174353 301.12683329 287.51022019 307.60092627 286.10009766 314.20581055 C285.85517578 315.41108398 285.61025391 316.61635742 285.35791016 317.8581543 C276.48380262 358.5165798 252.22566979 391.32671029 217.61181641 413.82299805 C215.14327072 415.35806007 212.64213889 416.7955743 210.10009766 418.20581055 C208.97732422 418.83229492 207.85455078 419.4587793 206.69775391 420.10424805 C199.06321385 424.2143144 191.28151766 427.39533436 183.03759766 430.08081055 C182.17682617 430.36690186 181.31605469 430.65299316 180.42919922 430.94775391 C167.70666341 434.90305104 154.73883756 435.55947336 141.52148438 435.52148438 C139.23340181 435.51832202 136.94661602 435.54191321 134.65869141 435.56713867 C121.2311502 435.624942 108.16246547 433.83091603 95.28759766 429.89331055 C94.24369873 429.58127686 94.24369873 429.58127686 93.17871094 429.26293945 C87.77521413 427.57535714 82.79227907 425.33793243 77.81103516 422.63549805 C75.02124059 421.11387556 75.02124059 421.11387556 71.66259766 419.76049805 C58.13705536 413.85790393 46.78798274 404.18337251 36.10009766 394.20581055 C35.29701172 393.4684668 34.49392578 392.73112305 33.66650391 391.97143555 C8.86191165 368.31777637 -6.37410066 334.25428193 -8.89990234 300.20581055 C-8.89990234 298.88581055 -8.89990234 297.56581055 -8.89990234 296.20581055 C-9.53412109 296.2522168 -10.16833984 296.29862305 -10.82177734 296.34643555 C-43.46647619 297.60893771 -76.45690069 279.71704659 -99.89990234 258.20581055 C-100.44533691 257.7056543 -100.99077148 257.20549805 -101.55273438 256.69018555 C-128.11170016 231.99432302 -146.38423898 195.6926334 -147.89990234 159.20581055 C-149.08733199 114.9597251 -136.20753369 76.99621456 -105.89990234 44.20581055 C-97.20900692 35.14526989 -87.43931407 27.96783481 -76.89990234 21.20581055 C-75.89314453 20.54709961 -74.88638672 19.88838867 -73.84912109 19.2097168 C-51.82935124 5.53492196 -25.62234543 -0.20710903 0 0 Z M-43.89990234 20.20581055 C-44.86541016 20.51389648 -45.83091797 20.82198242 -46.82568359 21.1394043 C-60.62239925 25.73830952 -72.33296086 33.61048662 -83.89990234 42.20581055 C-84.88990234 42.86581055 -85.87990234 43.52581055 -86.89990234 44.20581055 C-86.89990234 44.86581055 -86.89990234 45.52581055 -86.89990234 46.20581055 C-87.44517578 46.42881836 -87.99044922 46.65182617 -88.55224609 46.8815918 C-110.86425724 59.46690258 -123.89194511 90.74943658 -130.99755859 113.76049805 C-131.73790598 116.56563335 -132.35319137 119.35715865 -132.89990234 122.20581055 C-133.10228516 123.13006836 -133.30466797 124.05432617 -133.51318359 125.0065918 C-140.06630836 159.37706251 -130.82344115 196.44684919 -111.66162109 225.32299805 C-90.51917042 255.7981881 -58.86362443 275.48347902 -22.72021484 282.85424805 C-19.48690215 283.25729257 -16.34528259 283.33825713 -13.08740234 283.33081055 C-11.37617188 283.33467773 -11.37617188 283.33467773 -9.63037109 283.33862305 C-6.98664769 283.51652858 -6.98664769 283.51652858 -5.89990234 282.20581055 C-1.86830044 281.94287999 -0.340975 281.91176211 3.10009766 284.20581055 C3.39235876 286.67926238 3.51084593 288.97662983 3.53759766 291.45581055 C5.00161706 329.31641259 21.64854987 363.32998874 49.11962891 389.0769043 C62.19511883 400.88300973 78.0713291 409.95940849 94.66259766 415.76831055 C95.45472656 416.05899414 96.24685547 416.34967773 97.06298828 416.64916992 C110.24579192 421.29275797 123.12331813 422.78932408 136.97509766 422.70581055 C137.73034729 422.70471283 138.48559692 422.70361511 139.26373291 422.70248413 C176.47597359 422.54837491 209.13014852 408.91317808 235.59619141 382.73706055 C236.835625 381.4840918 236.835625 381.4840918 238.10009766 380.20581055 C238.86708984 379.43624023 239.63408203 378.66666992 240.42431641 377.8737793 C264.66059555 352.43570118 275.95606847 316.78725015 275.27978516 282.11206055 C274.11273541 244.939365 257.39806572 212.18433561 230.89697266 186.6315918 C220.62170697 177.10434416 208.35888677 170.31160156 195.88232422 164.10595703 C194.36281045 163.3384985 192.872295 162.51406582 191.38916016 161.6784668 C186.29448933 159.39736121 180.99194519 158.05253913 175.60009766 156.64331055 C174.41424072 156.33103516 173.22838379 156.01875977 172.0065918 155.69702148 C163.26554204 153.50255702 154.72770806 152.24476128 145.72900391 151.82470703 C144.88080078 151.78031494 144.03259766 151.73592285 143.15869141 151.69018555 C142.4193335 151.66666016 141.67997559 151.64313477 140.91821289 151.61889648 C139.10009766 151.20581055 139.10009766 151.20581055 137.10009766 148.20581055 C136.67700195 145.67236328 136.67700195 145.67236328 136.42431641 142.6394043 C136.32159424 141.52299561 136.21887207 140.40658691 136.11303711 139.25634766 C136.00564209 138.06404541 135.89824707 136.87174316 135.78759766 135.64331055 C132.07538672 99.31444958 115.10273882 66.8925408 86.83837891 43.44799805 C49.97926323 13.87285304 0.8617058 4.78215842 -43.89990234 20.20581055 Z " fill="#0F5D1C" transform="translate(179.89990234375,33.794189453125)"/>
<path d="M0 0 C6.89073617 3.42144192 13.01652722 9.9209486 16.1875 16.9296875 C18.89837884 25.90055629 17.87500407 34.58400927 13.6015625 42.80859375 C9.74100704 49.28195608 4.64728412 54.38265164 -2.67578125 56.79296875 C-10.72948701 58.25058643 -18.35406645 57.98508578 -25.5234375 53.86328125 C-31.28245396 49.62755412 -37.48366104 43.44314705 -38.8125 36.1796875 C-39.79667906 25.27897008 -38.67260695 17.08338049 -32.6875 7.9296875 C-23.26172188 -1.08627418 -12.63088587 -3.68400838 0 0 Z " fill="#0E5C1B" transform="translate(260.8125,220.8203125)"/>
<path d="M0 0 C1.20720703 -0.03287109 2.41441406 -0.06574219 3.65820312 -0.09960938 C11.02025422 -0.14388634 16.19469849 0.44684013 21.8125 5.4375 C26.27523611 10.24352351 27.01270222 13.88751524 26.9921875 20.2265625 C26.8125 22.4375 26.8125 22.4375 25.625 25.1875 C25.356875 25.93 25.08875 26.6725 24.8125 27.4375 C25.28300781 28.18644531 25.75351563 28.93539062 26.23828125 29.70703125 C28.92191931 34.36177816 28.31720302 39.21275748 27.8125 44.4375 C26.09597789 49.88998198 22.41630327 53.2253009 17.8125 56.4375 C12.7981629 58.1089457 7.55634925 57.62343357 2.3059082 57.62280273 C0.25386011 57.62499587 -1.79765588 57.6431849 -3.84960938 57.66210938 C-5.78223633 57.66500977 -5.78223633 57.66500977 -7.75390625 57.66796875 C-8.93927979 57.67207764 -10.12465332 57.67618652 -11.34594727 57.68041992 C-14.1875 57.4375 -14.1875 57.4375 -16.1875 55.4375 C-16.44819641 53.19836426 -16.44819641 53.19836426 -16.4621582 50.37695312 C-16.47169022 49.32245972 -16.48122223 48.26796631 -16.49104309 47.18151855 C-16.49013168 46.03880493 -16.48922028 44.89609131 -16.48828125 43.71875 C-16.49256638 42.54993286 -16.4968515 41.38111572 -16.50126648 40.17687988 C-16.50701757 37.70207366 -16.50750434 35.22725052 -16.50317383 32.75244141 C-16.50001303 28.95315923 -16.52346739 25.15465459 -16.54882812 21.35546875 C-16.55110083 18.95573015 -16.55180475 16.55598945 -16.55078125 14.15625 C-16.559991 13.01353638 -16.56920074 11.87082275 -16.57868958 10.69348145 C-16.57246078 9.63898804 -16.56623199 8.58449463 -16.55981445 7.49804688 C-16.56044388 6.5669812 -16.5610733 5.63591553 -16.5617218 4.67663574 C-16.43822861 3.93772095 -16.31473541 3.19880615 -16.1875 2.4375 C-11.27338279 -0.83857814 -5.77623732 0.02731799 0 0 Z " fill="#0D5B1A" transform="translate(145.1875,128.5625)"/>
<path d="M0 0 C2.11851501 -0.38095093 2.11851501 -0.38095093 4.76928711 -0.38818359 C6.2560923 -0.40236832 6.2560923 -0.40236832 7.77293396 -0.4168396 C9.38386681 -0.40773056 9.38386681 -0.40773056 11.02734375 -0.3984375 C12.67712975 -0.40274277 12.67712975 -0.40274277 14.36024475 -0.40713501 C16.68963128 -0.40917935 19.01903484 -0.40362375 21.34838867 -0.39111328 C24.91949813 -0.37508082 28.48947306 -0.39094236 32.06054688 -0.41015625 C34.32031501 -0.40817358 36.58008243 -0.40432943 38.83984375 -0.3984375 C39.91177475 -0.40451019 40.98370575 -0.41058289 42.08811951 -0.4168396 C43.08247513 -0.40738312 44.07683075 -0.39792664 45.10131836 -0.38818359 C45.97686874 -0.38579681 46.85241913 -0.38341003 47.75450134 -0.38095093 C50.4873295 0.0826759 51.38186596 0.77670633 53 3 C53.3125 6.0625 53.3125 6.0625 53 9 C51 11 51 11 49.02880859 11.22705078 C48.24328613 11.21657715 47.45776367 11.20610352 46.6484375 11.1953125 C45.79765625 11.18886719 44.946875 11.18242187 44.0703125 11.17578125 C42.73613281 11.15064453 42.73613281 11.15064453 41.375 11.125 C40.02921875 11.11146484 40.02921875 11.11146484 38.65625 11.09765625 C36.43723414 11.0740497 34.21874923 11.0411231 32 11 C32.00444122 11.54679413 32.00888245 12.09358826 32.01345825 12.6569519 C32.05761356 18.33426304 32.08783379 24.01152561 32.10986328 29.68896484 C32.11993751 31.8094277 32.13359733 33.92987661 32.15087891 36.05029297 C32.17506489 39.09345943 32.18646869 42.13644266 32.1953125 45.1796875 C32.20563507 46.13181122 32.21595764 47.08393494 32.22659302 48.06491089 C32.22681961 49.38605392 32.22681961 49.38605392 32.22705078 50.73388672 C32.231492 51.51110077 32.23593323 52.28831482 32.24050903 53.08908081 C32 55 32 55 30 57 C27.90625 57.265625 27.90625 57.265625 25.5 57.25 C24.7059375 57.25515625 23.911875 57.2603125 23.09375 57.265625 C21 57 21 57 19 55 C18.75949097 53.08908081 18.75949097 53.08908081 18.77294922 50.73388672 C18.77310028 49.85312469 18.77325134 48.97236267 18.77340698 48.06491089 C18.78372955 47.11278717 18.79405212 46.16066345 18.8046875 45.1796875 C18.8075174 44.20589142 18.81034729 43.23209534 18.81326294 42.22879028 C18.82448087 39.11073651 18.8495883 35.99296732 18.875 32.875 C18.88502772 30.76432706 18.89415393 28.65364962 18.90234375 26.54296875 C18.92442542 21.36188165 18.95791871 16.18096115 19 11 C18.15236084 11.01571045 18.15236084 11.01571045 17.28759766 11.03173828 C14.73344347 11.07324788 12.17936018 11.0993096 9.625 11.125 C8.73554688 11.14175781 7.84609375 11.15851563 6.9296875 11.17578125 C6.07890625 11.18222656 5.228125 11.18867188 4.3515625 11.1953125 C3.17327881 11.21102295 3.17327881 11.21102295 1.97119141 11.22705078 C0 11 0 11 -2 9 C-2.34490322 4.94738713 -2.30163882 3.45245824 0 0 Z " fill="#0D5B1A" transform="translate(307,313)"/>
<path d="M0 0 C0.99 0.66 1.98 1.32 3 2 C3.3742218 4.23913574 3.3742218 4.23913574 3.37231445 7.06054688 C3.37854324 8.11504028 3.38477203 9.16953369 3.39118958 10.25598145 C3.38197983 11.39869507 3.37277008 12.54140869 3.36328125 13.71875 C3.36377975 14.88756714 3.36427826 16.05638428 3.36479187 17.26062012 C3.36244805 19.73545021 3.35270153 22.21028253 3.33618164 24.68505859 C3.31259768 28.48426514 3.31561753 32.28277018 3.32226562 36.08203125 C3.31668897 38.48177504 3.30957917 40.88151586 3.30078125 43.28125 C3.30214836 44.99532043 3.30214836 44.99532043 3.30354309 46.74401855 C3.29401108 47.79851196 3.28447906 48.85300537 3.2746582 49.93945312 C3.27005081 50.8705188 3.26544342 51.80158447 3.26069641 52.76086426 C3 55 3 55 1 57 C-1.09375 57.265625 -1.09375 57.265625 -3.5 57.25 C-4.2940625 57.25515625 -5.088125 57.2603125 -5.90625 57.265625 C-8 57 -8 57 -10 55 C-10.26069641 52.76086426 -10.26069641 52.76086426 -10.2746582 49.93945312 C-10.28419022 48.88495972 -10.29372223 47.83046631 -10.30354309 46.74401855 C-10.30263168 45.60130493 -10.30172028 44.45859131 -10.30078125 43.28125 C-10.30506638 42.11243286 -10.3093515 40.94361572 -10.31376648 39.73937988 C-10.31951757 37.26457366 -10.32000434 34.78975052 -10.31567383 32.31494141 C-10.31251303 28.51565923 -10.33596739 24.71715459 -10.36132812 20.91796875 C-10.36360083 18.51823015 -10.36430475 16.11848945 -10.36328125 13.71875 C-10.372491 12.57603638 -10.38170074 11.43332275 -10.39118958 10.25598145 C-10.38496078 9.20148804 -10.37873199 8.14699463 -10.37231445 7.06054688 C-10.37294388 6.1294812 -10.3735733 5.19841553 -10.3742218 4.23913574 C-10.25072861 3.50022095 -10.12723541 2.76130615 -10 2 C-6.31282562 -0.45811625 -4.35654296 -0.31118164 0 0 Z " fill="#0C5A19" transform="translate(190,129)"/>
<path d="M0 0 C3.73468387 2.18847717 7.21341488 4.76912018 8.69140625 8.9609375 C9.48522714 14.20618437 9.75122012 18.46866667 7.375 23.3125 C4.26023336 26.83710435 1.61173611 29.54048449 -3.17578125 30.3828125 C-7.13581064 30.58247785 -9.66567838 30.15139092 -13.3125 28.5 C-17.71245315 24.40702032 -19.71825347 20.33447124 -20.4375 14.375 C-19.7539642 9.10200954 -17.96619936 6.11112926 -14.5 2.125 C-10.1619135 -1.17712554 -5.16057524 -1.16623169 0 0 Z " fill="#9EDCB3" transform="translate(255,234)"/>
<path d="M0 0 C14 0 14 0 16 1 C16.04254356 2.99954746 16.04080783 5.00041636 16 7 C14.06729418 8.93270582 10.61358612 8.62663055 8 9 C6.66351983 10.11101184 6.66351983 10.11101184 6.875 12.9375 C6.78674336 15.91545728 6.78674336 15.91545728 8 18 C10.02543556 18.25719817 12.05350224 18.50842122 14.08984375 18.65625 C16 19 16 19 18 21 C18.25 24 18.25 24 18 27 C16 29 16 29 12.3046875 29.1953125 C10.82798332 29.1838709 9.35138199 29.15789907 7.875 29.125 C5.27625 29.08375 2.6775 29.0425 0 29 C0 19.43 0 9.86 0 0 Z " fill="#D3EADB" transform="translate(142,143)"/>
<path d="M0 0 C2.14875399 1.84178914 2.92991554 3.21863279 3.18359375 6.046875 C3.18711381 8.03219032 3.09914207 10.01715856 3 12 C-0.10391762 13.83935859 -2.39429145 14.55472439 -6 14 C-8.74494293 11.63366989 -8.99348472 10.04642138 -9.5 6.4375 C-9 3 -9 3 -6.75 1.0625 C-4 0 -4 0 0 0 Z " fill="#1D6A2B" transform="translate(260,186)"/>
<path d="M0 0 C2.3125 -0.25 2.3125 -0.25 5 0 C6.8125 1.5 6.8125 1.5 8 4 C8.23884872 6.72079845 8.13709297 9.25814068 8 12 C4.62902617 13.49821059 2.79557881 14 -1 14 C-3.14875399 12.15821086 -3.92991554 10.78136721 -4.18359375 7.953125 C-4.18711381 5.96780968 -4.09914207 3.98284144 -4 2 C-2.68 2 -1.36 2 0 2 C0 1.34 0 0.68 0 0 Z " fill="#1A6828" transform="translate(313,221)"/>
<path d="M0 0 C2.60321135 1.30160567 3.5649571 2.3174142 4.875 4.9375 C4.75 8.5625 4.75 8.5625 3.875 11.9375 C0.62673326 14.10301116 -0.35594157 14.48906953 -4.125 13.9375 C-6.5 12.375 -6.5 12.375 -8.125 9.9375 C-8.1875 6.375 -8.1875 6.375 -7.125 2.9375 C-4.67422125 0.81790757 -3.26238923 -0.09595262 0 0 Z " fill="#1B6829" transform="translate(309.125,172.0625)"/>
<path d="M0 0 C1.8125 1.5625 1.8125 1.5625 3 4 C3.1875 7.75 3.1875 7.75 3 11 C-0.11421408 12.8454602 -2.38321316 13.46369062 -6 13 C-7.8125 12 -7.8125 12 -9 10 C-9.24667073 7.28125957 -9.13481122 4.74116148 -9 2 C-5.89608238 0.16064141 -3.60570855 -0.55472439 0 0 Z " fill="#1C692A" transform="translate(292,267)"/>
<path d="M0 0 C2 2 2 2 2.4375 5.4375 C2 9 2 9 -0.1875 11 C-3.37706461 12.13406742 -4.83335633 12.11260453 -8 11 C-10 9 -10 9 -10.1953125 6.8359375 C-10.17210937 6.02382812 -10.14890625 5.21171875 -10.125 4.375 C-10.10695313 3.55773437 -10.08890625 2.74046875 -10.0703125 1.8984375 C-10.04710937 1.27195313 -10.02390625 0.64546875 -10 0 C-6.3299081 -1.05654161 -3.74408569 -0.89532484 0 0 Z " fill="#186727" transform="translate(286,179)"/>
<path d="M0 0 C1.875 1.0625 1.875 1.0625 3 3 C3.04020632 5.8546484 2.59529079 8.16092083 2 11 C-0.79870027 12.39935013 -2.90498792 12.25265405 -6 12 C-7.875 10.9375 -7.875 10.9375 -9 9 C-9.4375 5.5 -9.4375 5.5 -9 2 C-6.18112246 -1.3408919 -4.01115641 -1.4399023 0 0 Z " fill="#186526" transform="translate(202,240)"/>
<path d="M0 0 C2 2 2 2 2.375 5.4375 C2 9 2 9 0.3125 10.9375 C-2.44209084 12.20312282 -4.00764653 12.53708909 -7 12 C-8.8125 10.4375 -8.8125 10.4375 -10 8 C-10.1875 4.25 -10.1875 4.25 -10 1 C-6.24391637 -0.82438348 -4.01050192 -1.30070333 0 0 Z " fill="#166424" transform="translate(325,197)"/>
<path d="M0 0 C1.125 1.8125 1.125 1.8125 1.0625 4.8125 C0.125 7.8125 0.125 7.8125 -1.625 9.75 C-3.875 10.8125 -3.875 10.8125 -6.4375 10.6875 C-10.40441176 9.26348039 -10.40441176 9.26348039 -11.875 6.8125 C-11.8125 3.25 -11.8125 3.25 -10.875 -0.1875 C-7.36910683 -3.19255129 -3.70471616 -2.34632023 0 0 Z " fill="#166323" transform="translate(275.875,288.1875)"/>
<path d="M0 0 C1.125 1.875 1.125 1.875 1.0625 5.4375 C0.125 8.875 0.125 8.875 -1.625 10.375 C-5.18236307 11.16552513 -7.64140915 10.61515451 -10.75 8.75 C-11.875 6.875 -11.875 6.875 -11.8125 3.3125 C-10.875 -0.125 -10.875 -0.125 -9.125 -1.625 C-5.56763693 -2.41552513 -3.10859085 -1.86515451 0 0 Z " fill="#156323" transform="translate(239.875,203.125)"/>
<path d="M0 0 C3.5625 0.3125 3.5625 0.3125 5.5 1.375 C7.11729605 4.32418691 6.74880138 7.02117559 6.5625 10.3125 C3.44828592 12.1579602 1.17928684 12.77619062 -2.4375 12.3125 C-4.25 11.25 -4.25 11.25 -5.4375 9.3125 C-5.75 5.75 -5.75 5.75 -5.4375 2.3125 C-3.4375 0.3125 -3.4375 0.3125 0 0 Z " fill="#156322" transform="translate(214.4375,218.6875)"/>
<path d="M0 0 C2 2 2 2 2.375 5.4375 C2 9 2 9 0.3125 11 C-2.64288086 12.27800253 -3.98998383 12.08051862 -7 11 C-8.875 9.875 -8.875 9.875 -10 8 C-9.6875 4.3125 -9.6875 4.3125 -9 1 C-5.60805912 -0.60174986 -3.55768883 -1.4721471 0 0 Z " fill="#166323" transform="translate(228,312)"/>
<path d="M0 0 C2.31361802 3.47042703 2.51020728 4.91834173 2 9 C-0.10705757 11.34117508 -1.46880822 11.90930872 -4.5625 12.4375 C-7 12 -7 12 -8.8125 10.375 C-10.35892124 7.28215752 -10.58064028 5.41126166 -10 2 C-6.63135977 -0.98365277 -4.22270592 -1.59778062 0 0 Z " fill="#156222" transform="translate(191,264)"/>
<path d="M0 0 C1.875 1.125 1.875 1.125 3 3 C2.9375 6.5625 2.9375 6.5625 2 10 C0.25 11.5 0.25 11.5 -2 12 C-5.34977063 11.68097423 -6.59179639 11.40820361 -9 9 C-9.375 5.5625 -9.375 5.5625 -9 2 C-6.18112246 -1.3408919 -4.01115641 -1.4399023 0 0 Z " fill="#156222" transform="translate(183,289)"/>
<path d="M0 0 C1.8125 1 1.8125 1 3 3 C3.24667073 5.71874043 3.13481122 8.25883852 3 11 C1.68 11 0.36 11 -1 11 C-1 11.66 -1 12.32 -1 13 C-3.60623142 12.64780657 -5.60789115 12.23526531 -7.875 10.875 C-9 9 -9 9 -8.875 5.4375 C-7.56722443 0.29981025 -4.99011177 -0.62376397 0 0 Z " fill="#136221" transform="translate(307,246)"/>
<path d="M0 0 C3.5625 0.3125 3.5625 0.3125 5.5625 1.375 C7.21452607 4.57580051 6.48256911 6.93891327 5.5625 10.3125 C3.8125 11.8125 3.8125 11.8125 1.5625 12.3125 C-1.78727063 11.99347423 -3.02929639 11.72070361 -5.4375 9.3125 C-5.6875 5.8125 -5.6875 5.8125 -5.4375 2.3125 C-3.4375 0.3125 -3.4375 0.3125 0 0 Z " fill="#156222" transform="translate(248.4375,300.6875)"/>
<path d="M0 0 C1.8125 1.6875 1.8125 1.6875 3 4 C2.9375 7.125 2.9375 7.125 2 10 C-0.35986478 11.93846036 -1.58741306 12.0294705 -4.625 11.8125 C-7 11 -7 11 -9 8 C-9.07905064 5.66800612 -9.08798769 3.33167378 -9 1 C-3.46153846 -1.61538462 -3.46153846 -1.61538462 0 0 Z " fill="#146121" transform="translate(202,318)"/>
</svg>
